<svg xmlns="http://www.w3.org/2000/svg" xmlns:xlink="http://www.w3.org/1999/xlink" viewBox="0 0 99.28 99.28"><defs><style>.cls-1{fill:url(#Degradado_sin_nombre_10);}.cls-2{fill:#fff;}</style><linearGradient id="Degradado_sin_nombre_10" x1="84.74" y1="14.54" x2="14.54" y2="84.74" gradientUnits="userSpaceOnUse"><stop offset="0" stop-color="#007ab5"/><stop offset="1" stop-color="#0046e5"/></linearGradient></defs><g id="ELEMENTS"><circle class="cls-1" cx="49.64" cy="49.64" r="49.64"/><path class="cls-2" d="M82.74,76h9.62v30.88H82.74Zm4.81-15.35A5.57,5.57,0,1,1,82,66.23a5.57,5.57,0,0,1,5.57-5.57" transform="translate(-53.92 -35.62)"/><path class="cls-2" d="M98.38,76h9.21v4.23h.13a10.06,10.06,0,0,1,9.09-5c9.72,0,11.51,6.39,11.51,14.71v16.93h-9.6v-15c0-3.58-.07-8.19-5-8.19S108,87.59,108,91.62v15.27h-9.6Z" transform="translate(-53.92 -35.62)"/></g></svg>