<svg id="Layer_1" data-name="Layer 1" xmlns="http://www.w3.org/2000/svg" viewBox="0 0 102.94 52.21"><defs><style>.cls-1{fill:#9f1fb4;}.cls-2{fill:#58595b;}</style></defs><path class="cls-1" d="M40.16,29.37a.12.12,0,0,1,.12-.12h.56a.11.11,0,0,1,.11.12v3.41H42.5a.11.11,0,0,1,.12.11v.5a.12.12,0,0,1-.12.12H40.28a.12.12,0,0,1-.12-.12Z"/><path class="cls-1" d="M45.68,29.19a2.19,2.19,0,1,1-2.18,2.19A2.18,2.18,0,0,1,45.68,29.19Zm0,3.59a1.4,1.4,0,1,0-1.39-1.4A1.4,1.4,0,0,0,45.68,32.78Z"/><path class="cls-1" d="M49.27,29.37a.12.12,0,0,1,.12-.12h1.74a1.32,1.32,0,0,1,1.33,1.31,1.36,1.36,0,0,1-.9,1.23l.83,1.54a.12.12,0,0,1-.1.18h-.64a.1.1,0,0,1-.1-.06l-.81-1.61h-.67v1.55a.13.13,0,0,1-.12.12h-.56a.12.12,0,0,1-.12-.12Zm1.79,1.82a.62.62,0,0,0,.61-.62.61.61,0,0,0-.61-.59h-1v1.21Z"/><path class="cls-1" d="M53.93,29.37a.12.12,0,0,1,.12-.12h.57a.11.11,0,0,1,.11.12v4a.12.12,0,0,1-.11.12h-.57a.13.13,0,0,1-.12-.12Z"/><path class="cls-1" d="M58,29.4a.11.11,0,0,1,.11-.15h.56a.12.12,0,0,1,.11.08l.63,2.43h0l1-2.5a.11.11,0,0,1,.11-.07h.11a.09.09,0,0,1,.1.07l1,2.5h0l.62-2.43a.12.12,0,0,1,.11-.08H63a.11.11,0,0,1,.11.15L62,33.48a.12.12,0,0,1-.11.09h-.1a.1.1,0,0,1-.1-.07l-1.09-2.75h0L59.48,33.5a.1.1,0,0,1-.1.07h-.1a.12.12,0,0,1-.11-.09Z"/><path class="cls-1" d="M64.46,29.37a.11.11,0,0,1,.11-.12h2.48a.11.11,0,0,1,.11.12v.49a.11.11,0,0,1-.11.12h-1.8v1h1.5a.12.12,0,0,1,.12.11v.51a.12.12,0,0,1-.12.11h-1.5v1.07h1.8a.1.1,0,0,1,.11.11v.5a.11.11,0,0,1-.11.12H64.57a.12.12,0,0,1-.11-.12Z"/><path class="cls-1" d="M68.64,29.37a.12.12,0,0,1,.12-.12H70.5a1.31,1.31,0,0,1,1.32,1.31,1.35,1.35,0,0,1-.9,1.23l.84,1.54a.12.12,0,0,1-.11.18H71a.09.09,0,0,1-.09-.06l-.81-1.61h-.68v1.55a.12.12,0,0,1-.11.12h-.56a.12.12,0,0,1-.12-.12Zm1.79,1.82a.62.62,0,0,0,.6-.62.61.61,0,0,0-.6-.59h-1v1.21Z"/><path class="cls-1" d="M73.3,29.37a.12.12,0,0,1,.12-.12H74a.12.12,0,0,1,.12.12V31h2V29.37a.12.12,0,0,1,.12-.12h.56a.11.11,0,0,1,.11.12v4a.12.12,0,0,1-.11.12H76.2a.12.12,0,0,1-.12-.12V31.71h-2v1.68a.12.12,0,0,1-.12.12h-.56a.13.13,0,0,1-.12-.12Z"/><path class="cls-1" d="M78,33.35l1.9-4.09a.1.1,0,0,1,.1-.07h.06a.09.09,0,0,1,.1.07l1.88,4.09a.11.11,0,0,1-.11.16h-.53a.17.17,0,0,1-.17-.12l-.3-.66H79.14l-.3.66a.18.18,0,0,1-.17.12h-.53A.11.11,0,0,1,78,33.35Zm2.63-1.3-.61-1.33h0l-.6,1.33Z"/><path class="cls-1" d="M83.23,29.3a.11.11,0,0,1,.11-.11h.16L86,31.88h0V29.37a.12.12,0,0,1,.12-.12h.56a.11.11,0,0,1,.11.12v4.09a.11.11,0,0,1-.11.11h-.15L84,30.78h0v2.61a.11.11,0,0,1-.11.12h-.56a.12.12,0,0,1-.11-.12Z"/><path class="cls-1" d="M88.54,29.37a.12.12,0,0,1,.12-.12h2.47a.12.12,0,0,1,.12.12v.49a.12.12,0,0,1-.12.12h-1.8v1h1.5a.12.12,0,0,1,.12.11v.51a.12.12,0,0,1-.12.11h-1.5v1.07h1.8a.11.11,0,0,1,.12.11v.5a.12.12,0,0,1-.12.12H88.66a.12.12,0,0,1-.12-.12Z"/><rect class="cls-2" x="34.18" y="22.42" width="60.1" height="2.1"/><rect class="cls-2" x="34.04" y="39" width="60.1" height="2.1"/><path class="cls-1" d="M20.9,38.3a1.52,1.52,0,0,1-.43.12,50.59,50.59,0,0,0-9.81,2,5.85,5.85,0,0,1-1,.25c-.45.07-.6-.13-.45-.57L9.28,40c1.51-3,2.66-6.25,3.92-9.41,1.68-4.21,3.29-8.45,4.72-12.75.18-.54.41-1.07.64-1.6a2.46,2.46,0,0,1,.33-.53.53.53,0,0,1,1,.33,2.14,2.14,0,0,1,0,.62c-.16.63-.33,1.26-.52,1.88-.25.78-.5.87-1.22.48-2.57,7.22-5.28,14.38-8.55,21.45a9.57,9.57,0,0,0,1-.24,83.21,83.21,0,0,1,9.44-2.42c.24-.05.48-.13.72-.18a.36.36,0,0,1,.47.22A.38.38,0,0,1,20.9,38.3Z"/><path class="cls-1" d="M40.13,24.34a58,58,0,0,1-5,14.18,20.53,20.53,0,0,1-2.39,3.77A15.39,15.39,0,0,1,31.06,44a4.3,4.3,0,0,1-1.22.73,2,2,0,0,1-2.46-.66,5.54,5.54,0,0,1-1-2.46,16.75,16.75,0,0,1-.18-4.74,51.55,51.55,0,0,1,1.75-9.7,1.43,1.43,0,0,0,0-.31l-.37.52c-1.11,1.56-2.19,3.14-3.35,4.66A28.91,28.91,0,0,1,22,34.51a5.09,5.09,0,0,1-1.24.91c-.81.42-1.44,0-1.44-.86A6.61,6.61,0,0,1,19.54,33a35.36,35.36,0,0,1,1.95-5.69c.66-1.53,1.37-3,2.1-4.53a10,10,0,0,1,.91-1.45,2,2,0,0,1,.53-.52A.66.66,0,0,1,26,21a.51.51,0,0,1-.4.83.68.68,0,0,0-.64.38,9.9,9.9,0,0,0-.56.87,44,44,0,0,0-4,9.66,11.5,11.5,0,0,0-.26,1.3,4.82,4.82,0,0,0,0,.66l.17.09a6.06,6.06,0,0,0,.81-.6,23.06,23.06,0,0,0,1.91-2c1-1.31,2-2.67,3-4,.77-1.05,1.52-2.11,2.28-3.17a1.9,1.9,0,0,1,.43-.46.51.51,0,0,1,.46,0c.1.06.15.28.16.43a1.44,1.44,0,0,1-.14.43,43.41,43.41,0,0,0-2.34,9.45,25.59,25.59,0,0,0-.3,4.46,9.74,9.74,0,0,0,.44,2.94,6.62,6.62,0,0,0,.78,1.52,1.42,1.42,0,0,0,1.94.44,7.26,7.26,0,0,0,1.43-1,14,14,0,0,0,2.4-3.2,43.3,43.3,0,0,0,3.35-7.29,57.91,57.91,0,0,0,2.89-10.91,24.71,24.71,0,0,0,.3-4.86,6.46,6.46,0,0,0-.46-2.3c-.28-.64-.45-.73-1.14-.6l0,0q-.5.08-.63-.27a.5.5,0,0,1,.31-.61,1.53,1.53,0,0,1,1.76.22,3,3,0,0,1,.54.8,7.14,7.14,0,0,1,.56,2.85A29.29,29.29,0,0,1,40.13,24.34Z"/></svg>