<svg id="_Layer_" data-name=" Layer " xmlns="http://www.w3.org/2000/svg" xmlns:xlink="http://www.w3.org/1999/xlink" viewBox="0 0 63.84 62.05"><defs><style>.cls-1{fill:url(#linear-gradient);}</style><linearGradient id="linear-gradient" x1="711.08" y1="-507.11" x2="757.87" y2="-553.9" gradientTransform="matrix(1, 0, 0, -1, -699.15, -493.96)" gradientUnits="userSpaceOnUse"><stop offset="0" stop-color="#1ed6ff"/><stop offset="1" stop-color="#5d4aff"/></linearGradient></defs><path class="cls-1" d="M20.88,9.78A.33.33,0,0,1,21,9.33h0a33.86,33.86,0,0,1,3.12-1.45.33.33,0,0,1,.43.18.32.32,0,0,1-.18.43h0a32.55,32.55,0,0,0-3.05,1.42.32.32,0,0,1-.16,0A.33.33,0,0,1,20.88,9.78ZM34.17,6.31h0c.58,0,1.17,0,1.75,0h0c.53,0,1.07,0,1.6,0A.35.35,0,0,0,37.87,6a.33.33,0,0,0-.29-.33c-.55,0-1.1,0-1.64,0h0c-.6,0-1.2,0-1.8.05a.34.34,0,0,0-.29.37.34.34,0,0,0,.31.3Zm6.73.34a33.15,33.15,0,0,1,3.29.7h.09A.33.33,0,0,0,44.61,7a.34.34,0,0,0-.25-.32A31.86,31.86,0,0,0,41,6a.33.33,0,0,0-.1.66ZM47.4,8.4a30.44,30.44,0,0,1,3,1.38.4.4,0,0,0,.15,0,.33.33,0,0,0,.16-.62,32.89,32.89,0,0,0-3.09-1.4.33.33,0,0,0-.25.61Zm-19.92-1h.09a30.64,30.64,0,0,1,3.29-.73.33.33,0,0,0,.25-.4A.35.35,0,0,0,30.75,6a32.55,32.55,0,0,0-3.36.75.35.35,0,0,0-.23.41.35.35,0,0,0,.31.24ZM15.54,13.77a.35.35,0,0,0,.22-.08,29.56,29.56,0,0,1,2.68-2,.34.34,0,0,0-.38-.55c-.94.65-1.86,1.34-2.73,2.08a.33.33,0,0,0,0,.47A.37.37,0,0,0,15.54,13.77ZM4.74,38.71a.33.33,0,0,0-.36-.29.33.33,0,0,0-.3.31,33.11,33.11,0,0,0,.48,4.44.32.32,0,0,0,.32.27h.06a.33.33,0,0,0,.27-.38A31.79,31.79,0,0,1,4.74,38.71Zm1.54,8.57a.34.34,0,0,0-.42-.21.34.34,0,0,0-.21.42,32.24,32.24,0,0,0,1.69,4.13.34.34,0,0,0,.3.18l.15,0a.33.33,0,0,0,.15-.44,32.42,32.42,0,0,1-1.65-4ZM5.39,29.64a.32.32,0,0,0-.4.24H5a30.71,30.71,0,0,0-.68,3.69c0,.24-.06.47-.08.7a.33.33,0,0,0,.29.37h0a.33.33,0,0,0,.33-.3c0-.23.05-.46.08-.69A32,32,0,0,1,5.63,30a.32.32,0,0,0-.24-.4ZM10.14,55.1a.33.33,0,1,0-.55.37h0A33.35,33.35,0,0,0,12.34,59a.34.34,0,0,0,.25.11.33.33,0,0,0,.34-.32.32.32,0,0,0-.09-.23,31.8,31.8,0,0,1-2.7-3.43ZM8.75,21.49a.34.34,0,0,0-.45.13l-.06.11a31.15,31.15,0,0,0-1.89,3.9.34.34,0,0,0,.19.43.27.27,0,0,0,.12,0A.34.34,0,0,0,7,25.88a32.07,32.07,0,0,1,1.84-3.83l.07-.1a.34.34,0,0,0-.13-.46ZM19.54,64.1A31.5,31.5,0,0,1,16,61.54a.33.33,0,0,0-.51.43.28.28,0,0,0,.09.07,29.94,29.94,0,0,0,3.62,2.61.26.26,0,0,0,.17,0,.33.33,0,0,0,.32-.34A.35.35,0,0,0,19.54,64.1ZM67.48,35a.33.33,0,0,0-.31.35h0c0,.7.07,1.41.07,2.11s0,1.12,0,1.67a.33.33,0,0,0,.31.35h0a.33.33,0,0,0,.33-.32c0-.56,0-1.13,0-1.7s0-1.44-.07-2.16a.33.33,0,0,0-.36-.3Zm-3.1-10.58a.32.32,0,0,0,.3.19.32.32,0,0,0,.33-.32.4.4,0,0,0,0-.15,32.78,32.78,0,0,0-1.83-3.4.34.34,0,0,0-.46-.1.32.32,0,0,0-.1.45A33.36,33.36,0,0,1,64.38,24.44ZM61.21,56.55a.34.34,0,0,0-.47.06,30.6,30.6,0,0,1-2.49,2.85.33.33,0,0,0,0,.47h0a.36.36,0,0,0,.24.09.31.31,0,0,0,.25-.1A31.94,31.94,0,0,0,61.28,57a.34.34,0,0,0-.07-.47ZM55.46,62a30.22,30.22,0,0,1-3.1,2.17.35.35,0,0,0-.11.46.33.33,0,0,0,.46.11,34.51,34.51,0,0,0,3.16-2.22.32.32,0,0,0,0-.47A.34.34,0,0,0,55.46,62ZM67.17,42.63a.33.33,0,0,0-.38.27,32.8,32.8,0,0,1-.87,3.68.32.32,0,0,0,.22.41l.09,0a.33.33,0,0,0,.32-.24A31.94,31.94,0,0,0,67.44,43a.33.33,0,0,0-.26-.38h0ZM65,50a.32.32,0,0,0-.43.17,33.31,33.31,0,0,1-1.73,3.36.32.32,0,0,0,.11.45h0a.33.33,0,0,0,.46-.11,33.74,33.74,0,0,0,1.76-3.44.32.32,0,0,0-.16-.43Zm2-18.07h.06a.32.32,0,0,0,.25-.39,32.68,32.68,0,0,0-1-3.75.33.33,0,0,0-.42-.21h0a.33.33,0,0,0-.21.42,30.65,30.65,0,0,1,.93,3.66.33.33,0,0,0,.33.27Zm-4.23-6-1.93-7.52A10.72,10.72,0,1,0,44.19,30.17c.21.16.43.31.65.46v6.53a.34.34,0,0,0,.3.36.33.33,0,0,0,.36-.31,0,0,0,0,0,0-.05h0V30.44a.35.35,0,0,0-.15-.28A10.05,10.05,0,1,1,60.23,18.53L62.17,26a.35.35,0,0,1-.06.28.31.31,0,0,1-.25.13H60a.33.33,0,0,0-.33.33h0a.31.31,0,0,0,0,.1v.87c0,2.43-1,3.74-3.28,4.23a.34.34,0,0,0-.31.33v4.91h0a.34.34,0,0,0,.3.36.33.33,0,0,0,.36-.31,0,0,0,0,0,0,0V32.58a5.44,5.44,0,0,0,1.78-.77,4.55,4.55,0,0,0,1.81-4.06v-.64h1.57a1,1,0,0,0,1-1,1,1,0,0,0,0-.25Zm-6.94,1.58a.84.84,0,0,1-.34,1.14h0l-1.73.92a.84.84,0,0,1-1.14-.34l-.48-.89a6.84,6.84,0,0,1-.91.09l-.29,1a.82.82,0,0,1-.41.5.79.79,0,0,1-.4.1.73.73,0,0,1-.25,0L48,29.32a.84.84,0,0,1-.56-1h0l.3-1a5.78,5.78,0,0,1-.71-.58l-.89.47A.84.84,0,0,1,45,26.85h0l-.92-1.73A.85.85,0,0,1,44.46,24l.89-.47a7,7,0,0,1-.09-.92l-1-.28a.85.85,0,0,1-.56-1l.57-1.88h0a.85.85,0,0,1,1.05-.56l1,.29a6.53,6.53,0,0,1,.59-.71l-.48-.88a.84.84,0,0,1,.35-1.14l1.73-.93a.85.85,0,0,1,1.14.35l.47.89A4.68,4.68,0,0,1,51,16.6l.3-1a.84.84,0,0,1,1-.56l1.88.57a.83.83,0,0,1,.56,1.05h0l-.29,1a5.7,5.7,0,0,1,.71.59l.89-.48a.84.84,0,0,1,1.14.35l.92,1.73A.85.85,0,0,1,57.83,21l-.89.47a7,7,0,0,1,.09.91l1,.3a.83.83,0,0,1,.56,1h0L58,25.58a.84.84,0,0,1-1,.56l-1-.29a6.64,6.64,0,0,1-.58.71Zm-.58.31-.5-.93a.58.58,0,0,1,.1-.7,5.28,5.28,0,0,0,.56-.69.61.61,0,0,1,.67-.25l1,.31a.22.22,0,0,0,.14,0,.16.16,0,0,0,.08-.1l.57-1.88a.17.17,0,0,0,0-.14.16.16,0,0,0-.1-.08l-1-.31a.61.61,0,0,1-.43-.57,5.14,5.14,0,0,0-.08-.88.61.61,0,0,1,.3-.65l.93-.5a.22.22,0,0,0,.09-.1.18.18,0,0,0,0-.14l-.92-1.73a.15.15,0,0,0-.11-.08.15.15,0,0,0-.13,0l-.93.5a.61.61,0,0,1-.71-.11,6.13,6.13,0,0,0-.68-.56.59.59,0,0,1-.25-.67l.3-1a.17.17,0,0,0-.12-.22l-1.87-.57a.18.18,0,0,0-.23.12l-.3,1a.6.6,0,0,1-.57.42,6.4,6.4,0,0,0-.88.09.6.6,0,0,1-.65-.31l-.5-.92a.18.18,0,0,0-.1-.09.22.22,0,0,0-.14,0l-1.73.93a.18.18,0,0,0-.08.24h0l.5.93a.59.59,0,0,1-.11.7,6.25,6.25,0,0,0-.56.69.61.61,0,0,1-.67.25l-1-.31a.17.17,0,0,0-.22.12h0l-.57,1.88a.18.18,0,0,0,.11.22h0l1,.3a.6.6,0,0,1,.42.58,6.56,6.56,0,0,0,.09.88.58.58,0,0,1-.31.64l-.92.5a.19.19,0,0,0-.09.24h0l.93,1.73a.18.18,0,0,0,.24.09h0l.93-.5a.53.53,0,0,1,.28-.07.59.59,0,0,1,.42.17,4.57,4.57,0,0,0,.69.56.62.62,0,0,1,.25.68l-.31,1a.17.17,0,0,0,.12.22h0l1.88.57a.17.17,0,0,0,.22-.12h0l.3-1a.63.63,0,0,1,.58-.43,5.24,5.24,0,0,0,.88-.08.59.59,0,0,1,.64.3l.5.93a.19.19,0,0,0,.24.08h0L55.22,28a.18.18,0,0,0,.06-.24h0Zm-.33-6.83a.33.33,0,0,0,0-.47.34.34,0,0,0-.46,0L51,24l-1.68-1.71a.35.35,0,0,0-.47,0,.33.33,0,0,0,0,.47l1.94,1.94a.33.33,0,0,0,.47,0ZM47.51,56.15a8.21,8.21,0,0,1,.66,1.1,7.58,7.58,0,0,1,.75,3.24v.86h.64a.59.59,0,0,1,.59.6.58.58,0,0,1-.22.46l-2.2,1.72a.57.57,0,0,1-.72,0l-2.2-1.72a.59.59,0,0,1-.1-.83.56.56,0,0,1,.46-.23h.67v-.29a4.64,4.64,0,0,0-1.08-3,9.92,9.92,0,0,1-7.22,5.16v1.5h.65a.59.59,0,0,1,.36,1.06l-2.19,1.72a.59.59,0,0,1-.73,0L33.44,65.8a.59.59,0,0,1,.36-1.06h.67V63.25a10,10,0,0,1-7.25-5.17,4,4,0,0,0-.5.72,4.59,4.59,0,0,0-.59,2.26v.29h.66a.59.59,0,0,1,.59.6.58.58,0,0,1-.22.46L25,64.13a.57.57,0,0,1-.72,0L22,62.41a.59.59,0,0,1-.1-.83.56.56,0,0,1,.46-.23h.65v-.86a7.39,7.39,0,0,1,.75-3.23,8.32,8.32,0,0,1,.66-1.11,7.26,7.26,0,0,1,1.66-1.66,10.23,10.23,0,0,1,0-2.07,7.4,7.4,0,0,1-3.06-6v-.86h-.65a.59.59,0,0,1-.59-.59.63.63,0,0,1,.23-.47l2.2-1.72a.57.57,0,0,1,.72,0l2.2,1.72a.6.6,0,0,1,.09.84.58.58,0,0,1-.46.22h-.67v.29a4.58,4.58,0,0,0,1.09,3,10,10,0,0,1,7.22-5.17v-1.5h-.65a.59.59,0,0,1-.36-1l2.2-1.73a.57.57,0,0,1,.72,0l2.19,1.72a.59.59,0,0,1-.36,1.06h-.67v1.5a9.91,9.91,0,0,1,7.25,5.17,4.64,4.64,0,0,0,1.08-3v-.29h-.67a.58.58,0,0,1-.59-.59.6.6,0,0,1,.22-.47L47,42.78a.57.57,0,0,1,.72,0l2.2,1.72a.6.6,0,0,1-.36,1.06h-.65v.86a7.42,7.42,0,0,1-3.06,6,10.23,10.23,0,0,1,0,2.07A7.47,7.47,0,0,1,47.51,56.15Zm.74,5.53V60.49a6.76,6.76,0,0,0-2.5-5.25,10,10,0,0,1-.68,2.2,5.26,5.26,0,0,1,1.44,3.62v.62a.33.33,0,0,1-.33.33h-.8l2,1.57,2-1.57h-.77a.32.32,0,0,1-.36-.29ZM36.87,65.06V63.31a8.69,8.69,0,0,1-.89,0c-.3,0-.57,0-.86,0v1.75a.33.33,0,0,1-.33.33H34L36,67l2-1.56h-.77a.33.33,0,0,1-.35-.32Zm8.37-11.61A9.25,9.25,0,1,0,36,62.7a9.25,9.25,0,0,0,9.25-9.25Zm-18.33,4a9.85,9.85,0,0,1-.68-2.2,6.76,6.76,0,0,0-2.5,5.25v1.19a.33.33,0,0,1-.33.33h-.78l2,1.56,2-1.56h-.83a.33.33,0,0,1-.33-.33h0v-.62a5.25,5.25,0,0,1,1.45-3.62ZM23.72,45.22v1.19a6.76,6.76,0,0,0,2.5,5.25,10,10,0,0,1,.68-2.2,5.27,5.27,0,0,1-1.43-3.61v-.62a.33.33,0,0,1,.33-.33h.8l-2-1.57-2,1.57h.77a.33.33,0,0,1,.35.31ZM35.1,41.83v1.75c.29,0,.59,0,.88,0s.58,0,.87,0V41.83a.33.33,0,0,1,.33-.33H38l-2-1.56L34,41.5h.78a.33.33,0,0,1,.35.31v0Zm10,7.64a9.85,9.85,0,0,1,.68,2.2,6.79,6.79,0,0,0,2.5-5.25V45.23a.33.33,0,0,1,.33-.33h.77l-2-1.57-2,1.57h.8a.33.33,0,0,1,.33.33v.62a5.23,5.23,0,0,1-1.41,3.62ZM32.52,57.08a2.65,2.65,0,0,0,2.65-2.65V50.14a.34.34,0,0,0-.36-.3.33.33,0,0,0-.3.3v4.29a2,2,0,0,1-4,0V50.14a.34.34,0,0,0-.36-.3.35.35,0,0,0-.31.3v4.29a2.66,2.66,0,0,0,2.66,2.65ZM36.67,57a.3.3,0,0,0,.2.06.3.3,0,0,0,.26-.13l2.19-3,2.19,3a.3.3,0,0,0,.26.13A.28.28,0,0,0,42,57a.32.32,0,0,0,.07-.46l-2.31-3.11L42,50.35a.33.33,0,0,0-.53-.4L39.32,52.9,37.14,50a.34.34,0,0,0-.47,0,.34.34,0,0,0-.07.43l2.31,3.11-2.31,3.1a.34.34,0,0,0,.07.46ZM9,17.38a3.19,3.19,0,1,1,3.19,3.19A3.19,3.19,0,0,1,9,17.38Zm.66,0a2.53,2.53,0,1,0,2.53-2.53,2.51,2.51,0,0,0-2.53,2.53ZM9,25.85A3.19,3.19,0,1,1,12.22,29,3.19,3.19,0,0,1,9,25.85Zm.66,0a2.53,2.53,0,1,0,2.53-2.53h0A2.53,2.53,0,0,0,9.69,25.85Zm3.1,11.58a2.76,2.76,0,0,1-.57.06A3.19,3.19,0,0,1,12,31.11h.18a3.19,3.19,0,0,1,.57,6.32Zm-.57-.6A2.53,2.53,0,1,0,9.69,34.3h0a2.53,2.53,0,0,0,2.53,2.53ZM32,19.65H17.85a.33.33,0,0,1-.33-.33h0v-4a.33.33,0,0,1,.33-.33H32a.33.33,0,0,1,.33.33v4a.32.32,0,0,1-.32.33ZM18.19,19h13.5V15.68H18.19Zm-.67,11.4v-9.2a.33.33,0,0,1,.33-.33H33.54a.34.34,0,0,1,.34.33v9.2a.34.34,0,0,1-.34.33H24l2.06,1.61H32a.33.33,0,0,1,.33.33h0v4.07a.32.32,0,0,1-.32.34H26.78l1.28,2.43a.37.37,0,0,1,0,.25.34.34,0,0,1-.17.2l-1.37.72-.15,0a.34.34,0,0,1-.3-.17l-1.68-3.21a.17.17,0,0,0-.22-.08h0l-1.92,1a.55.55,0,0,1-.5,0,.54.54,0,0,1-.27-.44l0-.75H17.85a.33.33,0,0,1-.33-.33h0V32.66a.33.33,0,0,1,.33-.33h3.31l-.09-1.61H17.85a.33.33,0,0,1-.33-.33Zm.67-8.87v8.54H21L21,29.14a.39.39,0,0,1,.36-.4.44.44,0,0,1,.25.08l1.58,1.24h10V21.52ZM31.69,33H26.94l1.5,1.18h0a.54.54,0,0,1,.09.75.49.49,0,0,1-.18.14l-1.92,1a.18.18,0,0,0-.07.24l.05.1h5.27Zm-10-3.25.43,7.84,1.75-.91a.72.72,0,0,1,.38-.1A.83.83,0,0,1,25,37l1.53,2.91.78-.41L25.77,36.6a.85.85,0,0,1,.35-1.13l1.75-.91Zm-3.5,6.67h3.2L21.2,33h-3ZM10.58,25.85a1.64,1.64,0,1,1,1.64,1.63h0A1.63,1.63,0,0,1,10.58,25.85Zm.66,0a1,1,0,1,0,1-1h0a1,1,0,0,0-1,1ZM19.88,24h2.89a.33.33,0,0,0,.36-.3.33.33,0,0,0-.31-.36H19.88a.33.33,0,0,0-.31.36.34.34,0,0,0,.31.3Zm4.65,0h2.89a.33.33,0,0,0,.3-.36.32.32,0,0,0-.3-.3H24.54a.33.33,0,0,0-.36.3.34.34,0,0,0,.31.36h0Zm4.65,0h2.24a.34.34,0,0,0,.3-.36.33.33,0,0,0-.3-.3H29.18a.33.33,0,0,0,0,.66Zm-9.3,2.11h9.23a.33.33,0,0,0,.31-.36.35.35,0,0,0-.31-.3H19.88a.33.33,0,0,0,0,.66Zm0,2.12H27a.33.33,0,0,0,.3-.36.32.32,0,0,0-.3-.3H19.88a.33.33,0,0,0-.31.36.34.34,0,0,0,.31.3Z" transform="translate(-4.08 -5.6)"/></svg>