<svg id="_Layer_" data-name=" Layer " xmlns="http://www.w3.org/2000/svg" viewBox="0 0 62.82 63.79"><defs><style>.cls-1,.cls-10,.cls-2,.cls-3,.cls-7{fill:none;}.cls-1,.cls-2,.cls-3,.cls-5,.cls-6,.cls-7{stroke:#366088;stroke-linecap:round;stroke-linejoin:round;stroke-width:0.65px;}.cls-1{stroke-dasharray:3.88;}.cls-2{stroke-dasharray:3.4;}.cls-3{stroke-dasharray:3.58;}.cls-4{fill:#a4edf5;}.cls-5,.cls-9{fill:#d0fdff;}.cls-6,.cls-8{fill:#fff;}</style></defs><path class="cls-1" d="M18.49,13.17a31.16,31.16,0,0,1,35.25-1.26" transform="translate(-5.62 -6.73)"/><path class="cls-2" d="M20.79,64.71A31.13,31.13,0,0,1,6,36a30.6,30.6,0,0,1,.37-3" transform="translate(-5.62 -6.73)"/><path class="cls-3" d="M66.63,28.64A31.17,31.17,0,0,1,52,65.44" transform="translate(-5.62 -6.73)"/><circle class="cls-4" cx="37.04" cy="38.19" r="22.86" transform="matrix(0, -1, 1, 0, -6.82, 68.45)"/><path class="cls-5" d="M8.17,19.26V16.51a.69.69,0,0,1,.69-.69H30.94a.69.69,0,0,1,.69.69h0v2.75" transform="translate(-5.62 -6.73)"/><path class="cls-6" d="M31.63,19.26V38.61a.69.69,0,0,1-.69.69H8.86a.68.68,0,0,1-.69-.69V19.26" transform="translate(-5.62 -6.73)"/><line class="cls-7" x1="2.55" y1="12.52" x2="26.01" y2="12.52"/><path class="cls-5" d="M13.59,31.51h-.75a1.93,1.93,0,0,1-1.94-1.93,2,2,0,0,1,1.94-1.94h.75a1.94,1.94,0,0,1,0,3.87Z" transform="translate(-5.62 -6.73)"/><path class="cls-5" d="M20.28,31.51h-.75a1.93,1.93,0,0,1-1.94-1.93,2,2,0,0,1,1.94-1.94h.75a1.94,1.94,0,0,1,0,3.87Z" transform="translate(-5.62 -6.73)"/><rect class="cls-5" x="18.58" y="20.91" width="4.63" height="3.87" rx="0.69"/><rect class="cls-5" x="5.28" y="26.43" width="4.63" height="3.87" rx="0.69"/><rect class="cls-5" x="11.97" y="26.43" width="4.62" height="3.87" rx="0.69"/><path class="cls-5" d="M26.89,37h-.75a1.92,1.92,0,0,1-1.93-1.93,2,2,0,0,1,1.93-1.94h.75a1.94,1.94,0,0,1,0,3.87Z" transform="translate(-5.62 -6.73)"/><path class="cls-5" d="M5.71,15.17h7.1a.44.44,0,0,1,.44.44v3a.43.43,0,0,1-.43.43H5.71a.43.43,0,0,1-.43-.43v-3A.43.43,0,0,1,5.71,15.17Z"/><line class="cls-7" x1="6.92" y1="16.39" x2="11.6" y2="16.39"/><line class="cls-7" x1="6.92" y1="17.81" x2="11.6" y2="17.81"/><path class="cls-5" d="M26.89,25.76h-4.1a1.92,1.92,0,0,1-1.93-1.93,2,2,0,0,1,1.93-1.94h4.1a1.94,1.94,0,0,1,0,3.87Z" transform="translate(-5.62 -6.73)"/><line class="cls-7" x1="16.88" y1="16.39" x2="21.57" y2="16.39"/><line class="cls-7" x1="16.88" y1="17.81" x2="21.57" y2="17.81"/><line class="cls-7" x1="13.25" y1="17.1" x2="15.24" y2="17.1"/><line class="cls-7" x1="20.9" y1="20.91" x2="20.9" y2="19.04"/><line class="cls-7" x1="18.58" y1="22.84" x2="16.59" y2="22.84"/><line class="cls-7" x1="11.97" y1="22.84" x2="9.9" y2="22.84"/><line class="cls-7" x1="7.59" y1="24.78" x2="7.59" y2="26.43"/><line class="cls-7" x1="9.9" y1="28.36" x2="11.96" y2="28.36"/><line class="cls-7" x1="16.59" y1="28.36" x2="18.58" y2="28.36"/><line class="cls-7" x1="20.9" y1="24.78" x2="20.9" y2="26.43"/><line class="cls-7" x1="7.59" y1="20.91" x2="7.59" y2="19.04"/><path class="cls-8" d="M41,20.14H63.84v17a1.5,1.5,0,0,1-1.5,1.5H42a1,1,0,0,1-1-1V20.14Z" transform="translate(-5.62 -6.73)"/><path class="cls-5" d="M37.84,32.85v1.48a.62.62,0,0,0,.58.66h11a.62.62,0,0,0,.58-.66V32.85" transform="translate(-5.62 -6.73)"/><path class="cls-6" d="M50.05,32.85V13.5a.63.63,0,0,0-.59-.66h-11a.62.62,0,0,0-.58.66V32.85" transform="translate(-5.62 -6.73)"/><line class="cls-7" x1="32.22" y1="26.13" x2="44.43" y2="26.13"/><polyline class="cls-7" points="34.42 13.57 38.85 10.52 39.85 11.39 42.41 9.67"/><polyline class="cls-6" points="37.55 18.24 37.55 14.3 39.15 14.3 39.15 18.24"/><polyline class="cls-6" points="40.75 18.24 40.75 12.69 42.41 12.69 42.41 18.25 34.34 18.25 34.34 15.76 35.95 15.76 35.95 18.25"/><line class="cls-7" x1="38.93" y1="20.75" x2="42.41" y2="20.75"/><line class="cls-7" x1="38.93" y1="22.32" x2="42.41" y2="22.32"/><rect class="cls-6" x="34.27" y="20.75" width="3.56" height="1.57"/><path class="cls-9" d="M63.84,37.53l-.07-.41A1.39,1.39,0,0,0,62.25,36L61,36.12V17.43h1.66a1.17,1.17,0,0,1,1.17,1.17Z" transform="translate(-5.62 -6.73)"/><path class="cls-7" d="M63.84,37.32V18.78h0a1.36,1.36,0,0,0-1.35-1.35H61V36h1.48a1.36,1.36,0,0,1,0,2.71H41.77a.75.75,0,0,1-.75-.76V35" transform="translate(-5.62 -6.73)"/><line class="cls-7" x1="48.44" y1="13.41" x2="44.43" y2="13.41"/><line class="cls-7" x1="55.39" y1="13.41" x2="51.85" y2="13.41"/><polyline class="cls-5" points="51.85 14.66 50.15 17.13 48.44 14.66"/><rect class="cls-5" x="48.44" y="7.82" width="3.41" height="6.84"/><path class="cls-5" d="M54.82,12.84h1.89a.76.76,0,0,1,.75.75v.95H54.05v-.95a.75.75,0,0,1,.75-.75Z" transform="translate(-5.62 -6.73)"/><line class="cls-7" x1="50.15" y1="13.58" x2="50.15" y2="9"/><polyline class="cls-7" points="46 21.46 50.43 18.4 51.43 19.27 53.99 17.55"/><polyline class="cls-6" points="49.12 26.12 49.12 22.18 50.73 22.18 50.73 26.12"/><polyline class="cls-6" points="52.33 26.12 52.33 20.57 53.99 20.57 53.99 26.13 45.92 26.13 45.92 23.64 47.52 23.64 47.52 26.13"/><line class="cls-7" x1="50.51" y1="28.33" x2="53.99" y2="28.33"/><line class="cls-7" x1="50.51" y1="29.9" x2="53.99" y2="29.9"/><rect class="cls-6" x="45.85" y="28.33" width="3.56" height="1.56"/><path class="cls-8" d="M24.19,43.84h25A1.16,1.16,0,0,1,50.4,45h0V64.18a1.74,1.74,0,0,1-1.73,1.73H24.75A1.73,1.73,0,0,1,23,64.18h0V45a1.17,1.17,0,0,1,1.17-1.15" transform="translate(-5.62 -6.73)"/><path class="cls-7" d="M24.19,43.84h25A1.16,1.16,0,0,1,50.4,45h0V64.18a1.74,1.74,0,0,1-1.73,1.73H24.75A1.73,1.73,0,0,1,23,64.18h0V45A1.17,1.17,0,0,1,24.19,43.84Z" transform="translate(-5.62 -6.73)"/><rect class="cls-9" x="35.63" y="39.86" width="6.8" height="7.06"/><rect class="cls-7" x="35.63" y="39.86" width="6.8" height="7.06"/><path class="cls-9" d="M35.67,52.34v.5a1.25,1.25,0,0,0,1.38,1.1,1.26,1.26,0,0,0,1.1-1.08V51.09a1.25,1.25,0,0,0-1.23-1.25,1.32,1.32,0,0,0-.69.2" transform="translate(-5.62 -6.73)"/><path class="cls-7" d="M35.67,52.34v.5a1.25,1.25,0,0,0,1.38,1.1,1.26,1.26,0,0,0,1.1-1.08V51.09a1.25,1.25,0,0,0-1.23-1.25,1.32,1.32,0,0,0-.69.2" transform="translate(-5.62 -6.73)"/><path class="cls-8" d="M31.09,46.79h1.65l0,0s2,5.27,2.08,5.38a.9.9,0,0,0,.75.25.92.92,0,0,0,.8-1L36,48.06l0-.31c2.21-.65,2.93.44,2.93.44a1.57,1.57,0,0,1-.31,2.2l0,0-.42.35,0,1a1.22,1.22,0,0,0,1.29,0l.26-.18a3.21,3.21,0,0,0,.87-4.44h0l2.34,1.48a.83.83,0,0,0,1.12-.32.81.81,0,0,0-.15-1.14h0l-3.07-2,.1.05,1.79.44a.91.91,0,0,0,.5-1.73L41,43.41l-.46-.13h0l1.77-.05a.89.89,0,0,0,.78-1,.91.91,0,0,0-.74-.78l-8,0s-1.41-.1-1.77,1H31" transform="translate(-5.62 -6.73)"/><path class="cls-7" d="M31.09,46.79h1.65l0,0s2,5.27,2.08,5.38a.9.9,0,0,0,.75.25.92.92,0,0,0,.8-1L36,48.06l0-.31c2.21-.65,2.93.44,2.93.44a1.57,1.57,0,0,1-.31,2.2l0,0-.42.35,0,1a1.22,1.22,0,0,0,1.29,0l.26-.18a3.21,3.21,0,0,0,.87-4.44h0l2.34,1.48a.83.83,0,0,0,1.12-.32.81.81,0,0,0-.15-1.14h0l-3.07-2,.1.05,1.79.44a.91.91,0,0,0,.5-1.73L41,43.41l-.46-.13h0l1.77-.05a.89.89,0,0,0,.78-1,.91.91,0,0,0-.74-.78l-8,0s-1.41-.1-1.77,1H31" transform="translate(-5.62 -6.73)"/><path class="cls-8" d="M37.82,44.22a7.05,7.05,0,0,1,3,1" transform="translate(-5.62 -6.73)"/><path class="cls-7" d="M37.82,44.22a7.05,7.05,0,0,1,3,1" transform="translate(-5.62 -6.73)"/><path class="cls-8" d="M40.49,43.26l-.9-.25c-.59-.15-1.19-.27-1.79-.36" transform="translate(-5.62 -6.73)"/><path class="cls-7" d="M40.49,43.26l-.9-.25c-.59-.15-1.19-.27-1.79-.36" transform="translate(-5.62 -6.73)"/><path class="cls-8" d="M38,45.73a3.34,3.34,0,0,1,2.54,1.38l.07.09" transform="translate(-5.62 -6.73)"/><path class="cls-7" d="M38,45.73a3.34,3.34,0,0,1,2.54,1.38l.07.09" transform="translate(-5.62 -6.73)"/><line class="cls-10" x1="26.77" y1="39.16" x2="27.42" y2="40.73"/><line class="cls-7" x1="26.77" y1="39.16" x2="27.42" y2="40.73"/><line class="cls-10" x1="28.12" y1="55.36" x2="28.77" y2="55.84"/><line class="cls-7" x1="28.12" y1="55.36" x2="28.77" y2="55.84"/><path class="cls-8" d="M47.46,70.19,47.3,70l-.16-.25-.28,0c-.8.2-1.71-.7-1.71-.7L40.93,66a.87.87,0,0,1-.35-1.18h0a.88.88,0,0,1,1.19-.34L44.54,66h0L41,60.26a.88.88,0,0,1,.3-1.2.89.89,0,0,1,1.22.3l.64,1.06,1.5,2.38,1.2,1.93L44.35,62.2A.84.84,0,0,1,44.66,61h0a.88.88,0,0,1,1.2.27L47.52,64,46,61.6a.84.84,0,0,1,.28-1.16h0a.86.86,0,0,1,1.17.29L49,63.21l-1.36-2.15A.84.84,0,0,1,48,59.91h0a.86.86,0,0,1,1.17.28l1.18,1.89.7,1.13a4.31,4.31,0,0,1,.34,3.84l-.05.13.21.35.15.21" transform="translate(-5.62 -6.73)"/><path class="cls-7" d="M47.46,70.19,47.3,70l-.16-.25-.28,0c-.8.2-1.71-.7-1.71-.7L40.93,66a.87.87,0,0,1-.35-1.18h0a.88.88,0,0,1,1.19-.34L44.54,66h0L41,60.26a.88.88,0,0,1,.3-1.2.89.89,0,0,1,1.22.3l.64,1.06,1.5,2.38,1.2,1.93L44.35,62.2A.84.84,0,0,1,44.66,61h0a.88.88,0,0,1,1.2.27L47.52,64,46,61.6a.84.84,0,0,1,.28-1.16h0a.86.86,0,0,1,1.17.29L49,63.21l-1.36-2.15A.84.84,0,0,1,48,59.91h0a.86.86,0,0,1,1.17.28l1.18,1.89.7,1.13a4.31,4.31,0,0,1,.34,3.84l-.05.13.21.35.15.21" transform="translate(-5.62 -6.73)"/><line class="cls-10" x1="23.49" y1="39.27" x2="19.22" y2="39.27"/><line class="cls-7" x1="23.49" y1="39.27" x2="19.22" y2="39.27"/><line class="cls-10" x1="23.49" y1="40.88" x2="19.22" y2="40.88"/><line class="cls-7" x1="23.49" y1="40.88" x2="19.22" y2="40.88"/><line class="cls-10" x1="42.42" y1="48.53" x2="34.46" y2="48.53"/><line class="cls-7" x1="42.42" y1="48.53" x2="34.46" y2="48.53"/><line class="cls-10" x1="42.42" y1="50.14" x2="34.46" y2="50.14"/><line class="cls-7" x1="42.42" y1="50.14" x2="34.46" y2="50.14"/><path class="cls-8" d="M22.21,54.51a8.81,8.81,0,0,0,4.37-1,4.85,4.85,0,0,1,4.76.29l2,1.09a.93.93,0,0,1,.49,1.22h0L31.14,55l2.52,1.1.13.07a1.28,1.28,0,0,0,.25.15,1,1,0,0,1,.39.44l1.23,2.88a1,1,0,0,1-.42,1.22.87.87,0,0,1-.42.1l-1-.84-1-2.36-2.41-.55L28.26,58a1.65,1.65,0,0,0-.18.61,1.72,1.72,0,0,0,1.37,1.79l2.91.63.61.15a1,1,0,0,1,.77,1,.94.94,0,0,1-1,.87l-.14,0-1.43-.3-4.89-1a3.37,3.37,0,0,1-2.65-2.74H22.33" transform="translate(-5.62 -6.73)"/><path class="cls-7" d="M22.21,54.51a8.81,8.81,0,0,0,4.37-1,4.85,4.85,0,0,1,4.76.29l2,1.09a.93.93,0,0,1,.49,1.22h0L31.14,55l2.52,1.1.13.07a1.28,1.28,0,0,0,.25.15,1,1,0,0,1,.39.44l1.23,2.88a1,1,0,0,1-.42,1.22.87.87,0,0,1-.42.1l-1-.84-1-2.36-2.41-.55L28.26,58a1.65,1.65,0,0,0-.18.61,1.72,1.72,0,0,0,1.37,1.79l2.91.63.61.15a1,1,0,0,1,.77,1,.94.94,0,0,1-1,.87l-.14,0-1.43-.3-4.89-1a3.37,3.37,0,0,1-2.65-2.74H22.33" transform="translate(-5.62 -6.73)"/><path class="cls-9" d="M32.26,61l-4-3a1.1,1.1,0,0,1-.3-1.51,1.13,1.13,0,0,1,1.56,0l5.81,4.94.75,1,.47.65a.19.19,0,0,1,0,.28.18.18,0,0,1-.21,0l-.75-.31-1.18-.5-.65-.45a1.18,1.18,0,0,0-.34-.75A3.29,3.29,0,0,0,32.24,61" transform="translate(-5.62 -6.73)"/><path class="cls-7" d="M32.26,61l-4-3a1.1,1.1,0,0,1-.3-1.51,1.13,1.13,0,0,1,1.56,0l5.81,4.94.75,1,.47.65a.19.19,0,0,1,0,.28.18.18,0,0,1-.21,0l-.75-.31-1.18-.5-.65-.45a1.18,1.18,0,0,0-.34-.75A3,3,0,0,0,32.26,61Z" transform="translate(-5.62 -6.73)"/></svg>